<?xml version="1.0" encoding="UTF-8"?>
<svg width="48pt" height="48pt" version="1.1" viewBox="0 0 1200 1200" xmlns="http://www.w3.org/2000/svg">
 <path d="m600 200c-17.863 0-34.371-9.5312-43.301-25-8.9336-15.469-8.9336-34.531 0-50 8.9297-15.469 25.438-25 43.301-25 276.15 0 500 223.85 500 500s-223.85 500-500 500-500-223.85-500-500c-0.03125-90.312 24.406-178.95 70.711-256.48 46.309-77.535 112.76-141.07 192.29-183.87 15.719-8.4844 34.773-7.9375 49.98 1.4336 15.207 9.3711 24.262 26.145 23.75 44s-10.512 34.082-26.23 42.566c-85.941 46.184-152.04 122.18-185.86 213.69-33.82 91.512-33.027 192.23 2.2266 283.2 35.254 90.973 102.54 165.92 189.2 210.74s186.7 56.434 281.32 32.645c94.617-23.793 177.28-81.344 232.42-161.82 55.148-80.48 78.98-178.34 67.016-275.17-11.969-96.824-58.91-185.94-131.99-250.57-73.082-64.629-167.27-100.32-264.83-100.36zm-200 300c-17.863 0-34.371-9.5312-43.301-25-8.9336-15.469-8.9336-34.531 0-50 8.9297-15.469 25.438-25 43.301-25h400c17.863 0 34.371 9.5312 43.301 25 8.9336 15.469 8.9336 34.531 0 50-8.9297 15.469-25.438 25-43.301 25zm0 150c-17.863 0-34.371-9.5312-43.301-25-8.9336-15.469-8.9336-34.531 0-50 8.9297-15.469 25.438-25 43.301-25h400c17.863 0 34.371 9.5312 43.301 25 8.9336 15.469 8.9336 34.531 0 50-8.9297 15.469-25.438 25-43.301 25zm0 150c-17.863 0-34.371-9.5312-43.301-25-8.9336-15.469-8.9336-34.531 0-50 8.9297-15.469 25.438-25 43.301-25h250c17.863 0 34.371 9.5312 43.301 25 8.9336 15.469 8.9336 34.531 0 50-8.9297 15.469-25.438 25-43.301 25z" fill="#fff"/>
</svg>
