<?xml version="1.0" encoding="UTF-8"?>
<svg width="44" height="44" version="1.1" viewBox="0 0 1200 1200" xmlns="http://www.w3.org/2000/svg">
 <path d="m195.51 29.754h808.97c90.672 0 165.76 75.09 165.76 165.76v808.97c0 90.672-75.09 165.76-165.76 165.76h-808.97c-90.672 0-165.76-75.09-165.76-165.76v-808.97c0-90.672 75.09-165.76 165.76-165.76zm403.78 708.38-160.09 160.09c-89.258 90.672-228.1-48.172-137.43-138.84l160.09-160.09-160.09-160.09c-90.672-89.258 48.172-228.1 137.43-137.43l160.09 160.09 160.09-160.09c90.672-90.672 229.52 48.172 138.84 137.43l-160.09 160.09 160.09 160.09c90.672 90.672-48.172 229.52-138.84 138.84z" fill="#fff" fill-rule="evenodd"/>
</svg>
